<svg width="789" height="208" viewBox="0 0 789 208" fill="none" xmlns="http://www.w3.org/2000/svg">
<circle cx="104" cy="104" r="104" fill="url(#paint0_linear_104_47)"/>
<mask id="mask0_104_47" style="mask-type:alpha" maskUnits="userSpaceOnUse" x="0" y="0" width="208" height="208">
<path d="M208 104C208 161.438 161.438 208 104 208C46.5624 208 0 161.438 0 104C0 46.5624 46.5624 0 104 0C161.438 0 208 46.5624 208 104Z" fill="url(#paint1_linear_104_47)"/>
</mask>
<g mask="url(#mask0_104_47)">
<path fill-rule="evenodd" clip-rule="evenodd" d="M-4 47.3125H101.509L103.905 47.8348L107.893 47.3125H204V50.9771H-4V47.3125Z" fill="white"/>
<path d="M204 86.416H-4V90.0806H204V86.416Z" fill="white"/>
<path d="M204 125.512H-4V129.176H204V125.512Z" fill="white"/>
<path d="M204 164.613H-4V168.278H204V164.613Z" fill="white"/>
<path fill-rule="evenodd" clip-rule="evenodd" d="M56 212.515C56 212.515 61.254 205.648 62.3485 202.457C63.4431 199.266 65.0008 194.984 68.1161 192.288C71.2314 189.602 75.896 186.705 80.6532 185.907C85.4104 185.109 93.2324 185.357 95.3879 184.807C97.5349 184.256 100.692 183.211 101.972 179.828C103.252 176.435 102.983 171.062 103.025 167.028C103.067 162.994 99.4125 159.674 97.3497 157.657C95.2868 155.64 89.7803 152.752 87.4901 147.269C85.1999 141.786 78.8008 137.302 76.9653 134.616C75.1382 131.929 74.3383 130.93 73.8332 128.94C73.328 126.95 75.0709 127.721 75.7108 128.142C76.3507 128.564 76.3086 129.637 76.4433 129.857C76.578 130.077 78.4809 131.076 78.8429 130.957C79.205 130.829 78.7082 128.417 79.3481 127.418C79.988 126.419 81.7057 127.372 81.6552 128.592C81.6131 129.811 82.0677 132.103 82.5056 132.773C82.9434 133.442 84.4421 135.587 84.6358 135.019C84.8294 134.451 83.8022 132.864 84.7873 132.901C85.7725 132.938 87.0944 133.469 87.7343 135.019C88.3742 136.559 88.652 138.081 88.8288 138.357C89.0141 138.632 90.9338 139.475 91.439 138.604C91.9442 137.733 91.3969 134.368 92.0536 134.368C92.7188 134.368 94.1586 134.762 97.3581 140.75C100.558 146.728 107.605 149.616 108.708 150.019C109.803 150.414 120.967 155.695 123.072 156.401C125.177 157.098 129.48 158.996 132.039 160.289C134.599 161.582 141.006 167.459 142.286 168.357C143.566 169.256 155.783 171.346 156.743 171.447C157.703 171.548 157.838 173.144 158.393 174.482C158.941 175.83 160.271 182.551 159.951 182.652C159.631 182.753 158.259 182.799 155.101 180.112C151.944 177.426 150.159 173.831 150.024 173.437C149.889 173.043 149.477 173.987 149.889 175.427C150.302 176.875 150.302 178.562 149.847 178.269C149.393 177.966 145.957 175.674 144.08 172.887C142.202 170.1 139.508 175.922 138.405 180.314C137.31 184.697 137.487 188.483 141.789 190.876C146.092 193.27 149.839 197.157 150.394 199.642C150.79 201.457 153.207 209.288 152.769 215L56 212.515ZM110.948 175.078C112.867 171.291 112.775 167.01 113.238 165.414C113.693 163.819 117.448 161.527 122.575 162.324C127.703 163.122 130.448 165.414 131.728 168.798C133.008 172.181 132.822 178.26 131.45 180.552C130.077 182.844 130.717 186.934 122.028 189.419C112.834 192.05 105.913 185.008 110.956 175.069L110.948 175.078Z" fill="#FEFEFE"/>
<path fill-rule="evenodd" clip-rule="evenodd" d="M160.638 172.3C160.638 172.3 162.289 173.765 162.373 175.914C162.466 178.062 163.384 180.261 164.201 180.993C165.027 181.726 166.855 176.739 168.599 175.636C170.334 174.54 176.105 171.836 179.399 171.238C182.692 170.64 188.092 170.143 190.342 169.09C192.583 168.037 192.22 164.372 188.741 162.039C185.262 159.705 183.206 161.171 182.103 160.8C181.008 160.438 179.719 155.763 177.065 154.76C174.411 153.749 173.771 154.575 173.864 155.586C173.956 156.597 175.01 160.346 173.586 160.346C172.171 160.346 171.294 159.478 169.146 159.385C166.998 159.292 167.268 160.624 168.413 161.399C169.559 162.174 170.747 163.227 169.601 163.547C168.455 163.867 164.976 164.92 167.268 165.282C169.559 165.644 171.707 167.936 171.345 168.483C170.983 169.031 168.557 169.579 168.784 170.311C169.011 171.044 171.21 172.418 169.239 172.46C167.268 172.502 166.585 172.14 166.038 171.862C165.49 171.584 160.663 171.196 160.638 172.274V172.3Z" fill="#FEFEFE"/>
<path fill-rule="evenodd" clip-rule="evenodd" d="M156.433 152.611C156.433 152.611 155.936 150.91 158 150.96C160.064 151.002 160.292 151.878 160.654 152.695C161.016 153.521 163.442 159.148 163.4 160.934C163.358 162.72 162.709 163.175 161.016 162.08C159.314 160.977 157.52 155.046 156.433 152.611Z" fill="#FEFEFE"/>
<path fill-rule="evenodd" clip-rule="evenodd" d="M145.986 149.64C145.986 149.64 146.172 148.401 148.05 148.225C149.929 148.039 151.715 151.249 152.077 151.796C152.439 152.344 154.225 155.781 154.368 157.98C154.503 160.179 153.13 159.715 152.448 159.631C151.757 159.538 149.609 156.792 148.286 154.779C146.955 152.765 146.02 150.752 145.995 149.648L145.986 149.64Z" fill="#FEFEFE"/>
<path fill-rule="evenodd" clip-rule="evenodd" d="M137.841 148.023C137.841 148.023 137.479 145.184 139.442 145.049C141.413 144.914 142.146 146.195 142.323 147.02C142.508 147.846 144.471 154.577 144.471 155.579C144.471 156.59 143.965 157.23 142.735 157.045C141.497 156.86 139.121 153.111 137.841 148.031V148.023Z" fill="#FEFEFE"/>
<path fill-rule="evenodd" clip-rule="evenodd" d="M134.455 151.86C136.056 152.955 135.003 154.564 133.907 154.648C132.812 154.741 131.523 154.606 129.333 150.714C127.134 146.822 124.843 142.197 128.053 141.33C128.053 141.33 129.139 141.026 129.914 141.094C131.86 141.658 131.911 150.108 134.455 151.86Z" fill="#FEFEFE"/>
<path fill-rule="evenodd" clip-rule="evenodd" d="M115.938 139.291C115.938 139.291 117.176 137.64 118.726 138.466C120.285 139.291 121.245 142.265 121.751 143.225C122.256 144.186 123.722 147.758 124.404 148.44C125.095 149.131 124.404 150.639 123.166 150.411C121.927 150.184 118.819 146.014 117.858 144.051C116.898 142.08 115.71 140.984 115.938 139.291Z" fill="#FEFEFE"/>
<path fill-rule="evenodd" clip-rule="evenodd" d="M108.111 136.462C108.111 136.462 110.579 137.557 111.868 139.301C113.149 141.037 115.347 145.341 114.892 146.074C114.438 146.807 112.744 146.352 111.548 145.889C110.36 145.434 107.706 141.037 107.336 139.158C106.973 137.279 106.83 136.277 108.111 136.454V136.462Z" fill="#FEFEFE"/>
<path fill-rule="evenodd" clip-rule="evenodd" d="M94.4229 128.585C94.4229 128.585 99.8228 136.369 101.744 136.369C103.664 136.369 105.13 133.985 103.942 132.157C102.754 130.329 102.931 128.678 105.223 129.04C107.514 129.402 115.29 129.402 116.115 130.051C116.941 130.691 120.42 131.609 121.515 130.143C122.611 128.678 125.449 129.958 126.09 131.062C126.73 132.157 131.49 133.993 132.863 134.086C134.236 134.179 140.184 139.579 144.219 140.859C148.246 142.14 151.632 144.431 153.469 145.164C155.297 145.897 158.228 145.712 157.495 141.87C156.763 138.029 153.098 130.885 151.817 128.501C150.537 126.117 142.02 113.303 130.032 107.903C118.036 102.503 102.569 99.0242 93.2266 98.1059C83.8925 97.1877 75.2829 98.7462 75.1902 107.811C75.0976 116.875 77.7512 117.608 81.5084 119.622C85.2657 121.635 88.5596 121.635 88.3742 123.101C88.1889 124.567 88.4416 124.609 87.1611 125.392C85.8806 126.167 88.2816 126.31 89.1745 126.42C90.0675 126.538 91.7355 126.462 92.1988 126.715C92.6538 126.968 94.0101 127.608 94.4229 128.593V128.585Z" fill="#FEFEFE"/>
<path fill-rule="evenodd" clip-rule="evenodd" d="M165.26 139.435C165.26 139.435 170.711 148.542 172.674 149.46C174.645 150.378 174.139 145.383 174.274 141.954C174.409 138.517 171.983 130.556 169.877 125.426C167.771 120.295 162.093 112.056 157.88 107.482C150.888 99.8747 136.837 95.3256 126.845 91.0966C121.445 88.8052 112.103 88.8978 110.73 88.9905C109.357 89.0832 103.224 89.4454 104.69 83.5905C106.155 77.7272 114.209 64.181 118.969 59.2359C123.728 54.2909 127.208 47.88 127.755 45.319C128.303 42.758 128.85 28.4704 128.85 28.4704C128.85 28.4704 129.743 26.9119 129.743 25.3366C129.743 25.3366 129.288 25.9347 128.412 26.0274C127.545 26.1201 129.507 23.5759 129.423 22.4808C129.423 22.4808 128.278 23.8792 127.705 23.9213C127.132 23.9634 128.32 22.0174 128 20.6948C128 20.6948 127.747 21.5457 127.132 21.9753C127.132 21.9753 127.587 20.4168 126.854 18.4961C126.854 18.4961 126.736 19.8271 126.003 20.4421C126.003 20.4421 126.669 17.3756 125.565 15.4549C125.565 15.4549 125.363 18.4034 124.512 18.9594C124.512 18.9594 124.899 17.1313 123.914 15C123.914 15 123.956 16.7186 121.302 16.6259C118.649 16.5332 100.814 19.0521 95.5998 21.5204C90.3851 23.9887 86.5352 28.9338 86.8132 36.7178C86.8132 36.7178 86.4931 38.6891 87.6388 38.1836C88.7845 37.6782 90.4778 37.7287 91.2528 37.1727C92.0279 36.6251 92.7187 31.8654 96.1979 30.7197C99.6771 29.574 103.291 30.4923 103.704 30.6776C104.117 30.8629 101.05 32.5983 100.958 33.1965C100.865 33.7946 103.156 34.1568 104.117 34.0642C105.077 33.9715 104.024 34.9824 104.757 35.1172C105.49 35.252 107.276 34.4769 107.916 35.1172C108.556 35.7574 113.451 41.8903 113.451 43.4488C113.451 45.0073 116.104 45.6897 117.292 43.8111C118.48 41.9324 118.345 39.919 117.84 37.1306C117.334 34.3422 116.829 30.9977 113.586 30.13C110.334 29.2623 111.572 26.1959 113.265 25.185C114.959 24.174 119.078 24.3173 120.864 26.8361C130.35 40.2055 113.586 55.8831 108.371 65.4699C104.437 72.7064 102.786 77.4661 101.598 81.6782C100.41 85.8904 97.571 90.3721 100.958 91.2903C104.344 92.2086 110.848 94.9549 113.409 95.4098C135.143 99.2934 152.986 114.449 162.387 133.909C163.719 136.655 165.226 139.444 165.226 139.444L165.26 139.435Z" fill="#FEFEFE"/>
<path fill-rule="evenodd" clip-rule="evenodd" d="M97.9768 41.2465C97.9768 41.2465 95.8876 40.404 94.1354 40.1934C83.4197 38.9298 84.0852 47.0929 80.3111 57.0673C76.6465 66.7552 73.1168 77.6309 71.7941 82.2643C71.0612 84.8253 68.0369 93.0642 67.1271 98.8349C66.2088 104.605 65.7539 111.741 66.1162 115.127C66.4784 118.514 68.1801 118.969 68.7698 118.927C69.3679 118.885 68.5845 117.368 70.143 116.408C71.7015 115.448 70.8338 114.344 70.8338 112.516C70.8338 110.688 70.9686 103.224 72.982 99.93C74.9954 96.6361 78.7526 91.6911 79.6624 86.6533C80.5807 81.6156 83.9672 76.4937 85.61 72.5511C87.2611 68.617 89.0892 61.6585 90.4624 59.4598C91.8355 57.261 93.6636 50.8501 95.5001 50.8501C97.3282 50.8501 96.0477 53.4111 95.2221 55.2476C94.3965 57.0757 89.2745 68.7096 88.5416 69.8974C86.5114 73.1913 81.7348 82.9804 82.8637 86.9229C83.2259 88.2034 86.5282 88.5741 87.8087 85.8278C89.0892 83.0814 94.9525 72.4584 95.5928 71.5486C96.233 70.6304 103.646 55.3403 105.205 52.5097C106.763 49.6707 109.324 47.0592 109.139 44.8689C108.954 42.6702 107.951 39.7891 105.474 38.2811C101.22 35.678 98.0442 41.2549 97.9684 41.2549L97.9768 41.2465ZM99.291 45.804C99.291 45.804 100.572 46.0315 101.304 45.0711C102.037 44.1107 103.688 41.5497 104.464 41.4571C105.239 41.3644 105.971 43.8411 105.609 44.8436C105.247 45.8545 101.448 49.5612 99.291 45.804Z" fill="#FEFEFE"/>
<path fill-rule="evenodd" clip-rule="evenodd" d="M95.7096 34.1378C95.7096 34.1378 96.1814 34.778 96.6111 34.3315C97.0491 33.885 97.7231 33.9777 98.2622 34.1715C98.8014 34.3652 100.082 35.1571 99.2479 35.8648C98.4139 36.5725 97.3861 36.6988 96.729 36.6988C96.0803 36.6988 93.5361 34.5169 95.7096 34.1378Z" fill="#FEFEFE"/>
</g>
<path d="M268.366 128.384C264.142 128.384 260.856 127.253 258.51 124.992C256.206 122.688 255.054 119.488 255.054 115.392V101.376H249.166V93.056H249.486C251.278 93.056 252.643 92.608 253.582 91.712C254.563 90.816 255.054 89.472 255.054 87.68V85.12H264.654V93.056H272.846V101.376H264.654V114.752C264.654 115.947 264.867 116.949 265.294 117.76C265.72 118.528 266.382 119.104 267.278 119.488C268.174 119.872 269.283 120.064 270.606 120.064C270.904 120.064 271.246 120.043 271.63 120C272.014 119.957 272.419 119.915 272.846 119.872V128C272.206 128.085 271.48 128.171 270.67 128.256C269.859 128.341 269.091 128.384 268.366 128.384ZM291.847 128.768C289.33 128.768 287.154 128.363 285.319 127.552C283.485 126.741 282.077 125.589 281.095 124.096C280.114 122.56 279.623 120.747 279.623 118.656C279.623 116.693 280.071 114.965 280.967 113.472C281.863 111.936 283.229 110.656 285.063 109.632C286.941 108.608 289.266 107.883 292.039 107.456L302.727 105.728V112.768L293.767 114.368C292.402 114.624 291.357 115.072 290.631 115.712C289.906 116.309 289.543 117.184 289.543 118.336C289.543 119.403 289.949 120.235 290.759 120.832C291.57 121.429 292.573 121.728 293.767 121.728C295.346 121.728 296.733 121.387 297.927 120.704C299.122 120.021 300.039 119.104 300.679 117.952C301.362 116.757 301.703 115.456 301.703 114.048V104.96C301.703 103.637 301.17 102.528 300.103 101.632C299.079 100.736 297.671 100.288 295.879 100.288C294.173 100.288 292.658 100.757 291.335 101.696C290.055 102.635 289.117 103.872 288.519 105.408L280.839 101.76C281.522 99.7973 282.61 98.112 284.103 96.704C285.597 95.296 287.389 94.208 289.479 93.44C291.57 92.672 293.853 92.288 296.327 92.288C299.271 92.288 301.874 92.8213 304.135 93.888C306.397 94.9547 308.146 96.448 309.383 98.368C310.663 100.245 311.303 102.443 311.303 104.96V128H302.343V122.368L304.519 121.984C303.495 123.52 302.365 124.8 301.127 125.824C299.89 126.805 298.503 127.531 296.967 128C295.431 128.512 293.725 128.768 291.847 128.768ZM320.904 128V93.056H329.864V101.568L328.904 100.16C329.416 97.472 330.653 95.488 332.616 94.208C334.578 92.928 336.925 92.288 339.656 92.288C342.557 92.288 345.096 93.0347 347.272 94.528C349.49 95.9787 350.877 97.9413 351.432 100.416L348.68 100.672C349.832 97.8133 351.474 95.7013 353.608 94.336C355.741 92.9707 358.237 92.288 361.096 92.288C363.613 92.288 365.832 92.8427 367.752 93.952C369.714 95.0613 371.25 96.6187 372.36 98.624C373.469 100.587 374.024 102.891 374.024 105.536V128H364.424V107.584C364.424 106.219 364.168 105.045 363.656 104.064C363.186 103.083 362.504 102.315 361.608 101.76C360.712 101.205 359.624 100.928 358.344 100.928C357.106 100.928 356.018 101.205 355.08 101.76C354.184 102.315 353.48 103.083 352.968 104.064C352.498 105.045 352.264 106.219 352.264 107.584V128H342.664V107.584C342.664 106.219 342.408 105.045 341.896 104.064C341.426 103.083 340.744 102.315 339.848 101.76C338.952 101.205 337.864 100.928 336.584 100.928C335.346 100.928 334.258 101.205 333.32 101.76C332.424 102.315 331.72 103.083 331.208 104.064C330.738 105.045 330.504 106.219 330.504 107.584V128H320.904ZM382.901 140.8V93.056H391.861V99.712L391.029 97.792C392.181 96.0427 393.739 94.6987 395.701 93.76C397.707 92.7787 399.989 92.288 402.549 92.288C405.877 92.288 408.885 93.0987 411.573 94.72C414.261 96.3413 416.395 98.5387 417.973 101.312C419.552 104.043 420.341 107.115 420.341 110.528C420.341 113.899 419.552 116.971 417.973 119.744C416.437 122.517 414.325 124.715 411.637 126.336C408.949 127.957 405.899 128.768 402.485 128.768C400.096 128.768 397.877 128.341 395.829 127.488C393.824 126.592 392.203 125.291 390.965 123.584L392.501 121.6V140.8H382.901ZM401.333 120.128C403.125 120.128 404.704 119.723 406.069 118.912C407.435 118.101 408.501 116.971 409.269 115.52C410.037 114.069 410.421 112.405 410.421 110.528C410.421 108.651 410.037 107.008 409.269 105.6C408.501 104.149 407.435 103.019 406.069 102.208C404.704 101.355 403.125 100.928 401.333 100.928C399.627 100.928 398.091 101.333 396.725 102.144C395.403 102.955 394.357 104.085 393.589 105.536C392.864 106.987 392.501 108.651 392.501 110.528C392.501 112.405 392.864 114.069 393.589 115.52C394.357 116.971 395.403 118.101 396.725 118.912C398.091 119.723 399.627 120.128 401.333 120.128ZM439.34 128.768C436.822 128.768 434.646 128.363 432.812 127.552C430.977 126.741 429.569 125.589 428.588 124.096C427.606 122.56 427.116 120.747 427.116 118.656C427.116 116.693 427.564 114.965 428.46 113.472C429.356 111.936 430.721 110.656 432.556 109.632C434.433 108.608 436.758 107.883 439.532 107.456L450.22 105.728V112.768L441.26 114.368C439.894 114.624 438.849 115.072 438.124 115.712C437.398 116.309 437.036 117.184 437.036 118.336C437.036 119.403 437.441 120.235 438.252 120.832C439.062 121.429 440.065 121.728 441.26 121.728C442.838 121.728 444.225 121.387 445.42 120.704C446.614 120.021 447.532 119.104 448.172 117.952C448.854 116.757 449.196 115.456 449.196 114.048V104.96C449.196 103.637 448.662 102.528 447.596 101.632C446.572 100.736 445.164 100.288 443.372 100.288C441.665 100.288 440.15 100.757 438.828 101.696C437.548 102.635 436.609 103.872 436.012 105.408L428.332 101.76C429.014 99.7973 430.102 98.112 431.596 96.704C433.089 95.296 434.881 94.208 436.972 93.44C439.062 92.672 441.345 92.288 443.82 92.288C446.764 92.288 449.366 92.8213 451.628 93.888C453.889 94.9547 455.638 96.448 456.876 98.368C458.156 100.245 458.796 102.443 458.796 104.96V128H449.836V122.368L452.012 121.984C450.988 123.52 449.857 124.8 448.62 125.824C447.382 126.805 445.996 127.531 444.46 128C442.924 128.512 441.217 128.768 439.34 128.768ZM487.98 128.768C485.591 128.768 483.372 128.341 481.324 127.488C479.319 126.592 477.698 125.291 476.46 123.584L477.356 121.6V128H468.396V79.552H477.996V99.712L476.524 97.792C477.676 96.0427 479.234 94.6987 481.196 93.76C483.202 92.7787 485.484 92.288 488.044 92.288C491.372 92.288 494.38 93.0987 497.068 94.72C499.756 96.3413 501.89 98.5387 503.468 101.312C505.047 104.043 505.836 107.115 505.836 110.528C505.836 113.899 505.047 116.971 503.468 119.744C501.932 122.517 499.82 124.715 497.132 126.336C494.444 127.957 491.394 128.768 487.98 128.768ZM486.828 120.128C488.62 120.128 490.199 119.723 491.564 118.912C492.93 118.101 493.996 116.971 494.764 115.52C495.532 114.069 495.916 112.405 495.916 110.528C495.916 108.651 495.532 107.008 494.764 105.6C493.996 104.149 492.93 103.019 491.564 102.208C490.199 101.355 488.62 100.928 486.828 100.928C485.122 100.928 483.586 101.333 482.22 102.144C480.898 102.955 479.852 104.085 479.084 105.536C478.359 106.987 477.996 108.651 477.996 110.528C477.996 112.405 478.359 114.069 479.084 115.52C479.852 116.971 480.898 118.101 482.22 118.912C483.586 119.723 485.122 120.128 486.828 120.128ZM524.835 128.768C522.317 128.768 520.141 128.363 518.307 127.552C516.472 126.741 515.064 125.589 514.083 124.096C513.101 122.56 512.611 120.747 512.611 118.656C512.611 116.693 513.059 114.965 513.955 113.472C514.851 111.936 516.216 110.656 518.051 109.632C519.928 108.608 522.253 107.883 525.027 107.456L535.715 105.728V112.768L526.755 114.368C525.389 114.624 524.344 115.072 523.619 115.712C522.893 116.309 522.531 117.184 522.531 118.336C522.531 119.403 522.936 120.235 523.747 120.832C524.557 121.429 525.56 121.728 526.755 121.728C528.333 121.728 529.72 121.387 530.915 120.704C532.109 120.021 533.027 119.104 533.667 117.952C534.349 116.757 534.691 115.456 534.691 114.048V104.96C534.691 103.637 534.157 102.528 533.091 101.632C532.067 100.736 530.659 100.288 528.867 100.288C527.16 100.288 525.645 100.757 524.323 101.696C523.043 102.635 522.104 103.872 521.507 105.408L513.827 101.76C514.509 99.7973 515.597 98.112 517.091 96.704C518.584 95.296 520.376 94.208 522.467 93.44C524.557 92.672 526.84 92.288 529.315 92.288C532.259 92.288 534.861 92.8213 537.123 93.888C539.384 94.9547 541.133 96.448 542.371 98.368C543.651 100.245 544.291 102.443 544.291 104.96V128H535.331V122.368L537.507 121.984C536.483 123.52 535.352 124.8 534.115 125.824C532.877 126.805 531.491 127.531 529.955 128C528.419 128.512 526.712 128.768 524.835 128.768ZM559.331 142.208C558.307 142.208 557.305 142.123 556.323 141.952C555.385 141.781 554.553 141.504 553.827 141.12V133.248C554.425 133.419 555.129 133.568 555.939 133.696C556.75 133.824 557.497 133.888 558.179 133.888C560.057 133.888 561.401 133.44 562.211 132.544C563.022 131.648 563.683 130.624 564.195 129.472L566.563 124.032L566.435 132.032L551.075 93.056H561.379L571.555 120.768H567.715L577.891 93.056H588.195L573.219 131.264C572.281 133.696 571.129 135.723 569.763 137.344C568.398 138.965 566.841 140.181 565.091 140.992C563.385 141.803 561.465 142.208 559.331 142.208ZM597.125 128V118.4H606.725V128H597.125Z" fill="black"/>
<path d="M638.226 142.08C635.538 142.08 633.042 141.632 630.738 140.736C628.434 139.84 626.45 138.581 624.786 136.96C623.164 135.381 621.991 133.504 621.266 131.328L630.162 128.192C630.631 129.813 631.591 131.093 633.042 132.032C634.492 132.971 636.22 133.44 638.226 133.44C639.804 133.44 641.17 133.141 642.322 132.544C643.474 131.989 644.348 131.157 644.946 130.048C645.586 128.939 645.906 127.637 645.906 126.144V118.144L647.762 120.448C646.567 122.411 645.031 123.883 643.154 124.864C641.276 125.803 639.079 126.272 636.562 126.272C633.319 126.272 630.418 125.547 627.858 124.096C625.298 122.603 623.292 120.576 621.842 118.016C620.391 115.413 619.666 112.469 619.666 109.184C619.666 105.899 620.391 102.997 621.842 100.48C623.292 97.92 625.276 95.9147 627.794 94.464C630.311 93.0133 633.17 92.288 636.37 92.288C638.887 92.288 641.084 92.8 642.962 93.824C644.839 94.8053 646.439 96.32 647.762 98.368L646.546 100.672V93.056H655.506V126.144C655.506 129.216 654.759 131.947 653.266 134.336C651.772 136.768 649.724 138.667 647.122 140.032C644.562 141.397 641.596 142.08 638.226 142.08ZM637.906 117.568C639.527 117.568 640.935 117.227 642.13 116.544C643.324 115.861 644.242 114.901 644.882 113.664C645.564 112.427 645.906 110.976 645.906 109.312C645.906 107.648 645.564 106.197 644.882 104.96C644.199 103.68 643.26 102.699 642.066 102.016C640.871 101.291 639.484 100.928 637.906 100.928C636.284 100.928 634.834 101.291 633.554 102.016C632.316 102.699 631.335 103.68 630.61 104.96C629.927 106.197 629.586 107.648 629.586 109.312C629.586 110.933 629.927 112.363 630.61 113.6C631.335 114.837 632.316 115.819 633.554 116.544C634.834 117.227 636.284 117.568 637.906 117.568ZM675.95 128.768C673.432 128.768 671.256 128.363 669.422 127.552C667.587 126.741 666.179 125.589 665.198 124.096C664.216 122.56 663.726 120.747 663.726 118.656C663.726 116.693 664.174 114.965 665.07 113.472C665.966 111.936 667.331 110.656 669.166 109.632C671.043 108.608 673.368 107.883 676.142 107.456L686.83 105.728V112.768L677.87 114.368C676.504 114.624 675.459 115.072 674.734 115.712C674.008 116.309 673.646 117.184 673.646 118.336C673.646 119.403 674.051 120.235 674.862 120.832C675.672 121.429 676.675 121.728 677.87 121.728C679.448 121.728 680.835 121.387 682.03 120.704C683.224 120.021 684.142 119.104 684.782 117.952C685.464 116.757 685.806 115.456 685.806 114.048V104.96C685.806 103.637 685.272 102.528 684.206 101.632C683.182 100.736 681.774 100.288 679.982 100.288C678.275 100.288 676.76 100.757 675.438 101.696C674.158 102.635 673.219 103.872 672.622 105.408L664.942 101.76C665.624 99.7973 666.712 98.112 668.206 96.704C669.699 95.296 671.491 94.208 673.582 93.44C675.672 92.672 677.955 92.288 680.43 92.288C683.374 92.288 685.976 92.8213 688.238 93.888C690.499 94.9547 692.248 96.448 693.486 98.368C694.766 100.245 695.406 102.443 695.406 104.96V128H686.446V122.368L688.622 121.984C687.598 123.52 686.467 124.8 685.23 125.824C683.992 126.805 682.606 127.531 681.07 128C679.534 128.512 677.827 128.768 675.95 128.768ZM710.446 142.208C709.422 142.208 708.42 142.123 707.438 141.952C706.5 141.781 705.668 141.504 704.942 141.12V133.248C705.54 133.419 706.244 133.568 707.054 133.696C707.865 133.824 708.612 133.888 709.294 133.888C711.172 133.888 712.516 133.44 713.326 132.544C714.137 131.648 714.798 130.624 715.31 129.472L717.678 124.032L717.55 132.032L702.19 93.056H712.494L722.67 120.768H718.83L729.006 93.056H739.31L724.334 131.264C723.396 133.696 722.244 135.723 720.878 137.344C719.513 138.965 717.956 140.181 716.206 140.992C714.5 141.803 712.58 142.208 710.446 142.208Z" fill="url(#paint2_linear_104_47)"/>
<defs>
<linearGradient id="paint0_linear_104_47" x1="-5.07913e-05" y1="185.293" x2="35.3177" y2="-25.8025" gradientUnits="userSpaceOnUse">
<stop stop-color="#A9E774"/>
<stop offset="0.157297" stop-color="#6CDC94"/>
<stop offset="0.314877" stop-color="#40CDCD"/>
<stop offset="0.504798" stop-color="#43C0F5"/>
<stop offset="0.67286" stop-color="#7EA0CB"/>
<stop offset="0.921868" stop-color="#FF74E2"/>
</linearGradient>
<linearGradient id="paint1_linear_104_47" x1="83.3732" y1="-60.8398" x2="199.167" y2="15.4763" gradientUnits="userSpaceOnUse">
<stop stop-color="#A9E774"/>
<stop offset="0.1875" stop-color="#6CDC94"/>
<stop offset="0.348958" stop-color="#40CDCD"/>
<stop offset="0.53125" stop-color="#43C0F5"/>
<stop offset="0.6875" stop-color="#7EA0CB"/>
<stop offset="0.84375" stop-color="#AB89A4"/>
<stop offset="1" stop-color="#D8727D"/>
</linearGradient>
<linearGradient id="paint2_linear_104_47" x1="575.664" y1="124.565" x2="577.606" y2="95.7507" gradientUnits="userSpaceOnUse">
<stop stop-color="#A9E774"/>
<stop offset="0.1875" stop-color="#6CDC94"/>
<stop offset="0.348958" stop-color="#40CDCD"/>
<stop offset="0.53125" stop-color="#43C0F5"/>
<stop offset="0.6875" stop-color="#7EA0CB"/>
<stop offset="0.84375" stop-color="#FF74E2"/>
<stop offset="1" stop-color="#FB248B"/>
</linearGradient>
</defs>
</svg>
