<svg width="208" height="208" viewBox="0 0 208 208" fill="none" xmlns="http://www.w3.org/2000/svg">
<circle cx="104" cy="104" r="104" fill="url(#paint0_linear_104_24)"/>
<mask id="mask0_104_24" style="mask-type:alpha" maskUnits="userSpaceOnUse" x="0" y="0" width="208" height="208">
<path d="M208 104C208 161.438 161.438 208 104 208C46.5624 208 0 161.438 0 104C0 46.5624 46.5624 0 104 0C161.438 0 208 46.5624 208 104Z" fill="url(#paint1_linear_104_24)"/>
</mask>
<g mask="url(#mask0_104_24)">
<path fill-rule="evenodd" clip-rule="evenodd" d="M-4 47.3125H101.509L103.905 47.8348L107.893 47.3125H204V50.9771H-4V47.3125Z" fill="white"/>
<path d="M204 86.416H-4V90.0806H204V86.416Z" fill="white"/>
<path d="M204 125.512H-4V129.176H204V125.512Z" fill="white"/>
<path d="M204 164.613H-4V168.278H204V164.613Z" fill="white"/>
<path fill-rule="evenodd" clip-rule="evenodd" d="M56 212.515C56 212.515 61.254 205.648 62.3485 202.457C63.4431 199.266 65.0008 194.984 68.1161 192.288C71.2314 189.602 75.896 186.705 80.6532 185.907C85.4104 185.109 93.2324 185.357 95.3879 184.807C97.5349 184.256 100.692 183.211 101.972 179.828C103.252 176.435 102.983 171.062 103.025 167.028C103.067 162.994 99.4125 159.674 97.3497 157.657C95.2868 155.64 89.7803 152.752 87.4901 147.269C85.1999 141.786 78.8008 137.302 76.9653 134.616C75.1382 131.929 74.3383 130.93 73.8332 128.94C73.328 126.95 75.0709 127.721 75.7108 128.142C76.3507 128.564 76.3086 129.637 76.4433 129.857C76.578 130.077 78.4809 131.076 78.8429 130.957C79.205 130.829 78.7082 128.417 79.3481 127.418C79.988 126.419 81.7057 127.372 81.6552 128.592C81.6131 129.811 82.0677 132.103 82.5056 132.773C82.9434 133.442 84.4421 135.587 84.6358 135.019C84.8294 134.451 83.8022 132.864 84.7873 132.901C85.7725 132.938 87.0944 133.469 87.7343 135.019C88.3742 136.559 88.652 138.081 88.8288 138.357C89.0141 138.632 90.9338 139.475 91.439 138.604C91.9442 137.733 91.3969 134.368 92.0536 134.368C92.7188 134.368 94.1586 134.762 97.3581 140.75C100.558 146.728 107.605 149.616 108.708 150.019C109.803 150.414 120.967 155.695 123.072 156.401C125.177 157.098 129.48 158.996 132.039 160.289C134.599 161.582 141.006 167.459 142.286 168.357C143.566 169.256 155.783 171.346 156.743 171.447C157.703 171.548 157.838 173.144 158.393 174.482C158.941 175.83 160.271 182.551 159.951 182.652C159.631 182.753 158.259 182.799 155.101 180.112C151.944 177.426 150.159 173.831 150.024 173.437C149.889 173.043 149.477 173.987 149.889 175.427C150.302 176.875 150.302 178.562 149.847 178.269C149.393 177.966 145.957 175.674 144.08 172.887C142.202 170.1 139.508 175.922 138.405 180.314C137.31 184.697 137.487 188.483 141.789 190.876C146.092 193.27 149.839 197.157 150.394 199.642C150.79 201.457 153.207 209.288 152.769 215L56 212.515ZM110.948 175.078C112.867 171.291 112.775 167.01 113.238 165.414C113.693 163.819 117.448 161.527 122.575 162.324C127.703 163.122 130.448 165.414 131.728 168.798C133.008 172.181 132.822 178.26 131.45 180.552C130.077 182.844 130.717 186.934 122.028 189.419C112.834 192.05 105.913 185.008 110.956 175.069L110.948 175.078Z" fill="#FEFEFE"/>
<path fill-rule="evenodd" clip-rule="evenodd" d="M160.638 172.3C160.638 172.3 162.289 173.765 162.373 175.914C162.466 178.062 163.384 180.261 164.201 180.993C165.027 181.726 166.855 176.739 168.599 175.636C170.334 174.54 176.105 171.836 179.399 171.238C182.692 170.64 188.092 170.143 190.342 169.09C192.583 168.037 192.22 164.372 188.741 162.039C185.262 159.705 183.206 161.171 182.103 160.8C181.008 160.438 179.719 155.763 177.065 154.76C174.411 153.749 173.771 154.575 173.864 155.586C173.956 156.597 175.01 160.346 173.586 160.346C172.171 160.346 171.294 159.478 169.146 159.385C166.998 159.292 167.268 160.624 168.413 161.399C169.559 162.174 170.747 163.227 169.601 163.547C168.455 163.867 164.976 164.92 167.268 165.282C169.559 165.644 171.707 167.936 171.345 168.483C170.983 169.031 168.557 169.579 168.784 170.311C169.011 171.044 171.21 172.418 169.239 172.46C167.268 172.502 166.585 172.14 166.038 171.862C165.49 171.584 160.663 171.196 160.638 172.274V172.3Z" fill="#FEFEFE"/>
<path fill-rule="evenodd" clip-rule="evenodd" d="M156.433 152.611C156.433 152.611 155.936 150.91 158 150.96C160.064 151.002 160.292 151.878 160.654 152.695C161.016 153.521 163.442 159.148 163.4 160.934C163.358 162.72 162.709 163.175 161.016 162.08C159.314 160.977 157.52 155.046 156.433 152.611Z" fill="#FEFEFE"/>
<path fill-rule="evenodd" clip-rule="evenodd" d="M145.986 149.64C145.986 149.64 146.172 148.401 148.05 148.225C149.929 148.039 151.715 151.249 152.077 151.796C152.439 152.344 154.225 155.781 154.368 157.98C154.503 160.179 153.13 159.715 152.448 159.631C151.757 159.538 149.609 156.792 148.286 154.779C146.955 152.765 146.02 150.752 145.995 149.648L145.986 149.64Z" fill="#FEFEFE"/>
<path fill-rule="evenodd" clip-rule="evenodd" d="M137.841 148.023C137.841 148.023 137.479 145.184 139.442 145.049C141.413 144.914 142.146 146.195 142.323 147.02C142.508 147.846 144.471 154.577 144.471 155.579C144.471 156.59 143.965 157.23 142.735 157.045C141.497 156.86 139.121 153.111 137.841 148.031V148.023Z" fill="#FEFEFE"/>
<path fill-rule="evenodd" clip-rule="evenodd" d="M134.455 151.86C136.056 152.955 135.003 154.564 133.907 154.648C132.812 154.741 131.523 154.606 129.333 150.714C127.134 146.822 124.843 142.197 128.053 141.33C128.053 141.33 129.139 141.026 129.914 141.094C131.86 141.658 131.911 150.108 134.455 151.86Z" fill="#FEFEFE"/>
<path fill-rule="evenodd" clip-rule="evenodd" d="M115.938 139.291C115.938 139.291 117.176 137.64 118.726 138.466C120.285 139.291 121.245 142.265 121.751 143.225C122.256 144.186 123.722 147.758 124.404 148.44C125.095 149.131 124.404 150.639 123.166 150.411C121.927 150.184 118.819 146.014 117.858 144.051C116.898 142.08 115.71 140.984 115.938 139.291Z" fill="#FEFEFE"/>
<path fill-rule="evenodd" clip-rule="evenodd" d="M108.111 136.462C108.111 136.462 110.579 137.557 111.868 139.301C113.149 141.037 115.347 145.341 114.892 146.074C114.438 146.807 112.744 146.352 111.548 145.889C110.36 145.434 107.706 141.037 107.336 139.158C106.973 137.279 106.83 136.277 108.111 136.454V136.462Z" fill="#FEFEFE"/>
<path fill-rule="evenodd" clip-rule="evenodd" d="M94.4229 128.585C94.4229 128.585 99.8228 136.369 101.744 136.369C103.664 136.369 105.13 133.985 103.942 132.157C102.754 130.329 102.931 128.678 105.223 129.04C107.514 129.402 115.29 129.402 116.115 130.051C116.941 130.691 120.42 131.609 121.515 130.143C122.611 128.678 125.449 129.958 126.09 131.062C126.73 132.157 131.49 133.993 132.863 134.086C134.236 134.179 140.184 139.579 144.219 140.859C148.246 142.14 151.632 144.431 153.469 145.164C155.297 145.897 158.228 145.712 157.495 141.87C156.763 138.029 153.098 130.885 151.817 128.501C150.537 126.117 142.02 113.303 130.032 107.903C118.036 102.503 102.569 99.0242 93.2266 98.1059C83.8925 97.1877 75.2829 98.7462 75.1902 107.811C75.0976 116.875 77.7512 117.608 81.5084 119.622C85.2657 121.635 88.5596 121.635 88.3742 123.101C88.1889 124.567 88.4416 124.609 87.1611 125.392C85.8806 126.167 88.2816 126.31 89.1745 126.42C90.0675 126.538 91.7355 126.462 92.1988 126.715C92.6538 126.968 94.0101 127.608 94.4229 128.593V128.585Z" fill="#FEFEFE"/>
<path fill-rule="evenodd" clip-rule="evenodd" d="M165.26 139.435C165.26 139.435 170.711 148.542 172.674 149.46C174.645 150.378 174.139 145.383 174.274 141.954C174.409 138.517 171.983 130.556 169.877 125.426C167.771 120.295 162.093 112.056 157.88 107.482C150.888 99.8747 136.837 95.3256 126.845 91.0966C121.445 88.8052 112.103 88.8978 110.73 88.9905C109.357 89.0832 103.224 89.4454 104.69 83.5905C106.155 77.7272 114.209 64.181 118.969 59.2359C123.728 54.2909 127.208 47.88 127.755 45.319C128.303 42.758 128.85 28.4704 128.85 28.4704C128.85 28.4704 129.743 26.9119 129.743 25.3366C129.743 25.3366 129.288 25.9347 128.412 26.0274C127.545 26.1201 129.507 23.5759 129.423 22.4808C129.423 22.4808 128.278 23.8792 127.705 23.9213C127.132 23.9634 128.32 22.0174 128 20.6948C128 20.6948 127.747 21.5457 127.132 21.9753C127.132 21.9753 127.587 20.4168 126.854 18.4961C126.854 18.4961 126.736 19.8271 126.003 20.4421C126.003 20.4421 126.669 17.3756 125.565 15.4549C125.565 15.4549 125.363 18.4034 124.512 18.9594C124.512 18.9594 124.899 17.1313 123.914 15C123.914 15 123.956 16.7186 121.302 16.6259C118.649 16.5332 100.814 19.0521 95.5998 21.5204C90.3851 23.9887 86.5352 28.9338 86.8132 36.7178C86.8132 36.7178 86.4931 38.6891 87.6388 38.1836C88.7845 37.6782 90.4778 37.7287 91.2528 37.1727C92.0279 36.6251 92.7187 31.8654 96.1979 30.7197C99.6771 29.574 103.291 30.4923 103.704 30.6776C104.117 30.8629 101.05 32.5983 100.958 33.1965C100.865 33.7946 103.156 34.1568 104.117 34.0642C105.077 33.9715 104.024 34.9824 104.757 35.1172C105.49 35.252 107.276 34.4769 107.916 35.1172C108.556 35.7574 113.451 41.8903 113.451 43.4488C113.451 45.0073 116.104 45.6897 117.292 43.8111C118.48 41.9324 118.345 39.919 117.84 37.1306C117.334 34.3422 116.829 30.9977 113.586 30.13C110.334 29.2623 111.572 26.1959 113.265 25.185C114.959 24.174 119.078 24.3173 120.864 26.8361C130.35 40.2055 113.586 55.8831 108.371 65.4699C104.437 72.7064 102.786 77.4661 101.598 81.6782C100.41 85.8904 97.571 90.3721 100.958 91.2903C104.344 92.2086 110.848 94.9549 113.409 95.4098C135.143 99.2934 152.986 114.449 162.387 133.909C163.719 136.655 165.226 139.444 165.226 139.444L165.26 139.435Z" fill="#FEFEFE"/>
<path fill-rule="evenodd" clip-rule="evenodd" d="M97.9768 41.2465C97.9768 41.2465 95.8876 40.404 94.1354 40.1934C83.4197 38.9298 84.0852 47.0929 80.3111 57.0673C76.6465 66.7552 73.1168 77.6309 71.7941 82.2643C71.0612 84.8253 68.0369 93.0642 67.1271 98.8349C66.2088 104.605 65.7539 111.741 66.1162 115.127C66.4784 118.514 68.1801 118.969 68.7698 118.927C69.3679 118.885 68.5845 117.368 70.143 116.408C71.7015 115.448 70.8338 114.344 70.8338 112.516C70.8338 110.688 70.9686 103.224 72.982 99.93C74.9954 96.6361 78.7526 91.6911 79.6624 86.6533C80.5807 81.6156 83.9672 76.4937 85.61 72.5511C87.2611 68.617 89.0892 61.6585 90.4624 59.4598C91.8355 57.261 93.6636 50.8501 95.5001 50.8501C97.3282 50.8501 96.0477 53.4111 95.2221 55.2476C94.3965 57.0757 89.2745 68.7096 88.5416 69.8974C86.5114 73.1913 81.7348 82.9804 82.8637 86.9229C83.2259 88.2034 86.5282 88.5741 87.8087 85.8278C89.0892 83.0814 94.9525 72.4584 95.5928 71.5486C96.233 70.6304 103.646 55.3403 105.205 52.5097C106.763 49.6707 109.324 47.0592 109.139 44.8689C108.954 42.6702 107.951 39.7891 105.474 38.2811C101.22 35.678 98.0442 41.2549 97.9684 41.2549L97.9768 41.2465ZM99.291 45.804C99.291 45.804 100.572 46.0315 101.304 45.0711C102.037 44.1107 103.688 41.5497 104.464 41.4571C105.239 41.3644 105.971 43.8411 105.609 44.8436C105.247 45.8545 101.448 49.5612 99.291 45.804Z" fill="#FEFEFE"/>
<path fill-rule="evenodd" clip-rule="evenodd" d="M95.7096 34.1378C95.7096 34.1378 96.1814 34.778 96.6111 34.3315C97.0491 33.885 97.7231 33.9777 98.2622 34.1715C98.8014 34.3652 100.082 35.1571 99.2479 35.8648C98.4139 36.5725 97.3861 36.6988 96.729 36.6988C96.0803 36.6988 93.5361 34.5169 95.7096 34.1378Z" fill="#FEFEFE"/>
</g>
<defs>
<linearGradient id="paint0_linear_104_24" x1="-5.07913e-05" y1="185.293" x2="35.3177" y2="-25.8025" gradientUnits="userSpaceOnUse">
<stop stop-color="#A9E774"/>
<stop offset="0.157297" stop-color="#6CDC94"/>
<stop offset="0.314877" stop-color="#40CDCD"/>
<stop offset="0.504798" stop-color="#43C0F5"/>
<stop offset="0.67286" stop-color="#7EA0CB"/>
<stop offset="0.921868" stop-color="#FF74E2"/>
</linearGradient>
<linearGradient id="paint1_linear_104_24" x1="83.3732" y1="-60.8398" x2="199.167" y2="15.4763" gradientUnits="userSpaceOnUse">
<stop stop-color="#A9E774"/>
<stop offset="0.1875" stop-color="#6CDC94"/>
<stop offset="0.348958" stop-color="#40CDCD"/>
<stop offset="0.53125" stop-color="#43C0F5"/>
<stop offset="0.6875" stop-color="#7EA0CB"/>
<stop offset="0.84375" stop-color="#AB89A4"/>
<stop offset="1" stop-color="#D8727D"/>
</linearGradient>
</defs>
</svg>
